<mxfile host="app.diagrams.net" modified="2023-05-04T06:49:44.900Z" agent="Mozilla/5.0 (Windows NT 10.0; Win64; x64) AppleWebKit/537.36 (KHTML, like Gecko) Chrome/112.0.0.0 Safari/537.36" etag="GqiKJ6cBWs874rBZsuWR" version="21.2.3" type="github">
  <diagram name="第 1 页" id="a0qODan2Q1DSZ3mQigHt">
    <mxGraphModel dx="1802" dy="837" grid="1" gridSize="10" guides="1" tooltips="1" connect="1" arrows="1" fold="1" page="1" pageScale="1" pageWidth="827" pageHeight="1169" math="0" shadow="0">
      <root>
        <mxCell id="0" />
        <mxCell id="1" parent="0" />
        <mxCell id="kMznN8p3bmwgDsw7orBE-6" style="edgeStyle=orthogonalEdgeStyle;rounded=0;orthogonalLoop=1;jettySize=auto;html=1;exitX=1;exitY=0.5;exitDx=0;exitDy=0;entryX=0;entryY=0.5;entryDx=0;entryDy=0;" edge="1" parent="1" source="kMznN8p3bmwgDsw7orBE-1" target="kMznN8p3bmwgDsw7orBE-3">
          <mxGeometry relative="1" as="geometry" />
        </mxCell>
        <mxCell id="kMznN8p3bmwgDsw7orBE-1" value="BFF" style="rounded=1;whiteSpace=wrap;html=1;" vertex="1" parent="1">
          <mxGeometry x="240" y="180" width="120" height="60" as="geometry" />
        </mxCell>
        <mxCell id="kMznN8p3bmwgDsw7orBE-7" style="edgeStyle=orthogonalEdgeStyle;rounded=0;orthogonalLoop=1;jettySize=auto;html=1;exitX=0.5;exitY=0;exitDx=0;exitDy=0;" edge="1" parent="1" source="kMznN8p3bmwgDsw7orBE-2">
          <mxGeometry relative="1" as="geometry">
            <mxPoint x="380" y="210" as="targetPoint" />
          </mxGeometry>
        </mxCell>
        <mxCell id="kMznN8p3bmwgDsw7orBE-2" value="Skywalking" style="rounded=1;whiteSpace=wrap;html=1;" vertex="1" parent="1">
          <mxGeometry x="320" y="280" width="120" height="60" as="geometry" />
        </mxCell>
        <mxCell id="kMznN8p3bmwgDsw7orBE-9" style="edgeStyle=orthogonalEdgeStyle;rounded=0;orthogonalLoop=1;jettySize=auto;html=1;exitX=0.5;exitY=0;exitDx=0;exitDy=0;entryX=0.5;entryY=1;entryDx=0;entryDy=0;" edge="1" parent="1" source="kMznN8p3bmwgDsw7orBE-3" target="kMznN8p3bmwgDsw7orBE-4">
          <mxGeometry relative="1" as="geometry" />
        </mxCell>
        <mxCell id="kMznN8p3bmwgDsw7orBE-12" style="edgeStyle=orthogonalEdgeStyle;rounded=0;orthogonalLoop=1;jettySize=auto;html=1;exitX=0.5;exitY=0;exitDx=0;exitDy=0;entryX=0.5;entryY=1;entryDx=0;entryDy=0;" edge="1" parent="1" source="kMznN8p3bmwgDsw7orBE-3" target="kMznN8p3bmwgDsw7orBE-11">
          <mxGeometry relative="1" as="geometry" />
        </mxCell>
        <mxCell id="kMznN8p3bmwgDsw7orBE-13" style="edgeStyle=orthogonalEdgeStyle;rounded=0;orthogonalLoop=1;jettySize=auto;html=1;exitX=1;exitY=0.5;exitDx=0;exitDy=0;entryX=0;entryY=0.5;entryDx=0;entryDy=0;" edge="1" parent="1" source="kMznN8p3bmwgDsw7orBE-3" target="kMznN8p3bmwgDsw7orBE-10">
          <mxGeometry relative="1" as="geometry" />
        </mxCell>
        <mxCell id="kMznN8p3bmwgDsw7orBE-15" style="edgeStyle=orthogonalEdgeStyle;rounded=0;orthogonalLoop=1;jettySize=auto;html=1;exitX=1;exitY=0.5;exitDx=0;exitDy=0;entryX=0;entryY=0.5;entryDx=0;entryDy=0;" edge="1" parent="1" source="kMznN8p3bmwgDsw7orBE-3" target="kMznN8p3bmwgDsw7orBE-14">
          <mxGeometry relative="1" as="geometry" />
        </mxCell>
        <mxCell id="kMznN8p3bmwgDsw7orBE-3" value="API" style="rounded=1;whiteSpace=wrap;html=1;" vertex="1" parent="1">
          <mxGeometry x="400" y="180" width="120" height="60" as="geometry" />
        </mxCell>
        <mxCell id="kMznN8p3bmwgDsw7orBE-4" value="APIList" style="rounded=1;whiteSpace=wrap;html=1;" vertex="1" parent="1">
          <mxGeometry x="320" y="60" width="120" height="60" as="geometry" />
        </mxCell>
        <mxCell id="kMznN8p3bmwgDsw7orBE-8" style="edgeStyle=orthogonalEdgeStyle;rounded=0;orthogonalLoop=1;jettySize=auto;html=1;exitX=1;exitY=0.5;exitDx=0;exitDy=0;entryX=0;entryY=0.5;entryDx=0;entryDy=0;" edge="1" parent="1" source="kMznN8p3bmwgDsw7orBE-5" target="kMznN8p3bmwgDsw7orBE-1">
          <mxGeometry relative="1" as="geometry" />
        </mxCell>
        <mxCell id="kMznN8p3bmwgDsw7orBE-5" value="MSE" style="rounded=1;whiteSpace=wrap;html=1;" vertex="1" parent="1">
          <mxGeometry x="80" y="180" width="120" height="60" as="geometry" />
        </mxCell>
        <mxCell id="kMznN8p3bmwgDsw7orBE-10" value="DB" style="rounded=1;whiteSpace=wrap;html=1;" vertex="1" parent="1">
          <mxGeometry x="600" y="140" width="120" height="60" as="geometry" />
        </mxCell>
        <mxCell id="kMznN8p3bmwgDsw7orBE-11" value="Pod List" style="rounded=1;whiteSpace=wrap;html=1;" vertex="1" parent="1">
          <mxGeometry x="470" y="60" width="120" height="60" as="geometry" />
        </mxCell>
        <mxCell id="kMznN8p3bmwgDsw7orBE-14" value="Mid" style="rounded=1;whiteSpace=wrap;html=1;" vertex="1" parent="1">
          <mxGeometry x="600" y="220" width="120" height="60" as="geometry" />
        </mxCell>
      </root>
    </mxGraphModel>
  </diagram>
</mxfile>
